<?xml version="1.0" encoding="UTF-8" standalone="no"?>
<!-- Created with Inkscape (http://www.inkscape.org/) -->

<svg
   version="1.1"
   id="svg1"
   width="1280"
   height="720"
   viewBox="0 0 1280 720"
   sodipodi:docname="maxresdefault.jpg"
   inkscape:version="1.4.2 (ebf0e94, 2025-05-08)"
   xml:space="preserve"
   xmlns:inkscape="http://www.inkscape.org/namespaces/inkscape"
   xmlns:sodipodi="http://sodipodi.sourceforge.net/DTD/sodipodi-0.dtd"
   xmlns:xlink="http://www.w3.org/1999/xlink"
   xmlns="http://www.w3.org/2000/svg"
   xmlns:svg="http://www.w3.org/2000/svg"><defs
     id="defs1"><inkscape:path-effect
       effect="fillet_chamfer"
       id="path-effect47"
       is_visible="true"
       lpeversion="1"
       nodesatellites_param="F,0,0,1,0,23.57569,0,1 @ F,0,0,1,0,0,0,1 @ F,0,0,1,0,0,0,1 @ F,0,0,1,0,0,0,1 @ F,0,0,1,0,0,0,1 @ F,0,0,1,0,0,0,1 @ F,0,0,1,0,0,0,1 @ F,0,0,1,0,0,0,1 @ F,0,0,1,0,0,0,1 @ F,0,0,1,0,0,0,1 @ F,0,0,1,0,0,0,1 @ F,0,0,1,0,0,0,1 @ F,0,0,1,0,0,0,1 @ F,0,0,1,0,0,0,1 @ F,0,0,1,0,0,0,1 @ F,0,0,1,0,0,0,1 @ F,0,0,1,0,0,0,1 @ F,0,0,1,0,0,0,1 @ F,0,0,1,0,0,0,1"
       radius="0"
       unit="px"
       method="auto"
       mode="F"
       chamfer_steps="1"
       flexible="false"
       use_knot_distance="true"
       apply_no_radius="true"
       apply_with_radius="true"
       only_selected="false"
       hide_knots="false" /><inkscape:path-effect
       effect="fillet_chamfer"
       id="path-effect45"
       is_visible="true"
       lpeversion="1"
       nodesatellites_param="F,0,0,1,0,4.7461954,0,1 @ F,0,0,1,0,4.0410043,0,1 @ F,0,0,1,0,5.7830933,0,1 @ F,0,0,1,0,6.3740247,0,1"
       radius="0"
       unit="px"
       method="auto"
       mode="F"
       chamfer_steps="1"
       flexible="false"
       use_knot_distance="true"
       apply_no_radius="true"
       apply_with_radius="true"
       only_selected="false"
       hide_knots="false" /><inkscape:path-effect
       effect="fillet_chamfer"
       id="path-effect44"
       is_visible="true"
       lpeversion="1"
       nodesatellites_param="F,0,0,1,0,0.68625031,0,1 @ F,0,0,1,0,0.71171795,0,1 @ F,0,0,1,0,8.6987493,0,1 @ F,0,0,1,0,1.2080191,0,1 @ F,0,0,1,0,1.7839074,0,1 @ F,0,0,1,0,1.2303331,0,1 @ F,0,0,1,0,1.8586425,0,1 @ F,0,0,1,0,5.7524512,0,1"
       radius="0"
       unit="px"
       method="auto"
       mode="F"
       chamfer_steps="1"
       flexible="false"
       use_knot_distance="true"
       apply_no_radius="true"
       apply_with_radius="true"
       only_selected="false"
       hide_knots="false" /><inkscape:path-effect
       effect="fillet_chamfer"
       id="path-effect43"
       is_visible="true"
       lpeversion="1"
       nodesatellites_param="F,0,0,1,0,0,0,1 @ F,0,0,1,0,0,0,1 @ F,0,0,1,0,0,0,1 @ F,0,0,1,0,0,0,1 @ F,0,0,1,0,0.75823977,0,1 @ F,0,0,1,0,1.2026361,0,1 @ F,0,0,1,0,2.969683,0,1 @ F,0,0,1,0,0,0,1 @ F,0,0,1,0,0,0,1"
       radius="0"
       unit="px"
       method="auto"
       mode="F"
       chamfer_steps="1"
       flexible="false"
       use_knot_distance="true"
       apply_no_radius="true"
       apply_with_radius="true"
       only_selected="false"
       hide_knots="false" /><inkscape:path-effect
       effect="fillet_chamfer"
       id="path-effect42"
       is_visible="true"
       lpeversion="1"
       nodesatellites_param="F,0,0,1,0,0,0,1 @ F,0,0,1,0,0,0,1 @ F,0,0,1,0,0,0,1 @ F,0,0,1,0,3.1474945,0,1 @ F,0,0,1,0,4.5837094,0,1 @ F,0,0,1,0,0,0,1"
       radius="0"
       unit="px"
       method="auto"
       mode="F"
       chamfer_steps="1"
       flexible="false"
       use_knot_distance="true"
       apply_no_radius="true"
       apply_with_radius="true"
       only_selected="false"
       hide_knots="false" /><inkscape:perspective
       sodipodi:type="inkscape:persp3d"
       inkscape:vp_x="0 : 360 : 1"
       inkscape:vp_y="0 : 1000 : 0"
       inkscape:vp_z="1280 : 360 : 1"
       inkscape:persp3d-origin="640 : 240 : 1"
       id="perspective37" /><inkscape:path-effect
       effect="fillet_chamfer"
       id="path-effect37"
       is_visible="true"
       lpeversion="1"
       nodesatellites_param="F,0,0,1,0,4.5043312,0,1 @ F,0,0,1,0,4.3384809,0,1 @ F,0,0,1,0,7.1729477,0,1 @ F,0,0,1,0,8.6564773,0,1"
       radius="0"
       unit="px"
       method="auto"
       mode="F"
       chamfer_steps="1"
       flexible="false"
       use_knot_distance="true"
       apply_no_radius="true"
       apply_with_radius="true"
       only_selected="false"
       hide_knots="false" /><inkscape:path-effect
       effect="fillet_chamfer"
       id="path-effect36"
       is_visible="true"
       lpeversion="1"
       nodesatellites_param="F,0,0,1,0,3.532822,0,1 @ F,0,0,1,0,4.1141693,0,1 @ F,0,0,1,0,4.2660196,0,1 @ F,0,0,1,0,3.7475705,0,1"
       radius="0"
       unit="px"
       method="auto"
       mode="F"
       chamfer_steps="1"
       flexible="false"
       use_knot_distance="true"
       apply_no_radius="true"
       apply_with_radius="true"
       only_selected="false"
       hide_knots="false" /><inkscape:path-effect
       effect="fillet_chamfer"
       id="path-effect35"
       is_visible="true"
       lpeversion="1"
       nodesatellites_param="F,0,0,1,0,1.2196967,0,1 @ F,0,0,1,0,1.8329073,0,1 @ F,0,0,1,0,3.2060595,0,1 @ F,0,0,1,0,3.9750478,0,1 @ F,0,0,1,0,2.2111346,0,1"
       radius="0"
       unit="px"
       method="auto"
       mode="F"
       chamfer_steps="1"
       flexible="false"
       use_knot_distance="true"
       apply_no_radius="true"
       apply_with_radius="true"
       only_selected="false"
       hide_knots="false" /><inkscape:path-effect
       effect="fillet_chamfer"
       id="path-effect34"
       is_visible="true"
       lpeversion="1"
       nodesatellites_param="F,0,0,1,0,0,0,1 @ F,0,0,1,0,0,0,1 @ F,0,0,1,0,0,0,1 @ F,0,0,1,0,0,0,1 @ F,0,0,1,0,0,0,1 @ F,0,0,1,0,0,0,1"
       radius="0"
       unit="px"
       method="auto"
       mode="F"
       chamfer_steps="1"
       flexible="false"
       use_knot_distance="true"
       apply_no_radius="true"
       apply_with_radius="true"
       only_selected="false"
       hide_knots="false" /><inkscape:path-effect
       effect="fillet_chamfer"
       id="path-effect33"
       is_visible="true"
       lpeversion="1"
       nodesatellites_param="F,0,0,1,0,0,0,1 @ F,0,0,1,0,0,0,1 @ F,0,0,1,0,0,0,1 @ F,0,0,1,0,0,0,1 @ F,0,0,1,0,0,0,1 @ F,0,0,1,0,0,0,1 @ F,0,0,1,0,0,0,1"
       radius="0"
       unit="px"
       method="auto"
       mode="F"
       chamfer_steps="1"
       flexible="false"
       use_knot_distance="true"
       apply_no_radius="true"
       apply_with_radius="true"
       only_selected="false"
       hide_knots="false" /><inkscape:path-effect
       effect="fillet_chamfer"
       id="path-effect32"
       is_visible="true"
       lpeversion="1"
       nodesatellites_param="F,0,0,1,0,0,0,1 @ F,0,0,1,0,0,0,1 @ F,0,0,1,0,0,0,1 @ F,0,0,1,0,0,0,1 @ F,0,0,1,0,0,0,1 @ F,0,0,1,0,0,0,1 @ F,0,0,1,0,0,0,1"
       radius="0"
       unit="px"
       method="auto"
       mode="F"
       chamfer_steps="1"
       flexible="false"
       use_knot_distance="true"
       apply_no_radius="true"
       apply_with_radius="true"
       only_selected="false"
       hide_knots="false" /><inkscape:path-effect
       effect="fillet_chamfer"
       id="path-effect31"
       is_visible="true"
       lpeversion="1"
       nodesatellites_param="F,0,0,1,0,3.9247745,0,1 @ F,0,0,1,0,4.0369311,0,1 @ F,0,0,1,0,4.2103264,0,1 @ F,0,0,1,0,4.4176929,0,1"
       radius="0"
       unit="px"
       method="auto"
       mode="F"
       chamfer_steps="1"
       flexible="false"
       use_knot_distance="true"
       apply_no_radius="true"
       apply_with_radius="true"
       only_selected="false"
       hide_knots="false" /><inkscape:path-effect
       effect="fillet_chamfer"
       id="path-effect30"
       is_visible="true"
       lpeversion="1"
       nodesatellites_param="F,0,0,1,0,0,0,1 @ F,0,0,1,0,2.1564313,0,1 @ F,0,0,1,0,2.0019637,0,1 @ F,0,0,1,0,0,0,1 @ F,0,0,1,0,0,0,1 @ F,0,0,1,0,0,0,1 @ F,0,0,1,0,0,0,1"
       radius="0"
       unit="px"
       method="auto"
       mode="F"
       chamfer_steps="1"
       flexible="false"
       use_knot_distance="true"
       apply_no_radius="true"
       apply_with_radius="true"
       only_selected="false"
       hide_knots="false" /><inkscape:path-effect
       effect="fillet_chamfer"
       id="path-effect29"
       is_visible="true"
       lpeversion="1"
       nodesatellites_param="F,0,0,1,0,2.656695,0,1 @ F,0,0,1,0,3.0630578,0,1 @ F,0,0,1,0,5.3226861,0,1 @ F,0,0,1,0,2.2527837,0,1 @ F,0,0,1,0,1.6635715,0,1 @ F,0,0,1,0,3.4885481,0,1 @ F,0,0,1,0,3.0293202,0,1 @ F,0,0,1,0,2.2264257,0,1"
       radius="0"
       unit="px"
       method="auto"
       mode="F"
       chamfer_steps="1"
       flexible="false"
       use_knot_distance="true"
       apply_no_radius="true"
       apply_with_radius="true"
       only_selected="false"
       hide_knots="false" /><inkscape:path-effect
       effect="fillet_chamfer"
       id="path-effect26"
       is_visible="true"
       lpeversion="1"
       nodesatellites_param="F,0,0,1,0,7.0114839,0,1 @ F,0,0,1,0,6.8928277,0,1 @ F,0,0,1,0,0,0,1 @ F,0,0,1,0,0,0,1 @ F,0,0,1,0,3.4823556,0,1"
       radius="0"
       unit="px"
       method="auto"
       mode="F"
       chamfer_steps="1"
       flexible="false"
       use_knot_distance="true"
       apply_no_radius="true"
       apply_with_radius="true"
       only_selected="false"
       hide_knots="false" /><linearGradient
       id="swatch1"
       inkscape:swatch="solid"><stop
         style="stop-color:#79cdc8;stop-opacity:1;"
         offset="0"
         id="stop1" /></linearGradient><linearGradient
       inkscape:collect="always"
       xlink:href="#swatch1"
       id="linearGradient1"
       x1="349.96844"
       y1="302.8106"
       x2="414.02343"
       y2="302.8106"
       gradientUnits="userSpaceOnUse"
       gradientTransform="matrix(1.0718202,0,0,1.0718202,-39.742494,-40.328603)" /></defs><sodipodi:namedview
     id="namedview1"
     pagecolor="#505050"
     bordercolor="#eeeeee"
     borderopacity="1"
     inkscape:showpageshadow="0"
     inkscape:pageopacity="0"
     inkscape:pagecheckerboard="0"
     inkscape:deskcolor="#505050"
     inkscape:zoom="0.68194444"
     inkscape:cx="674.54175"
     inkscape:cy="340.20367"
     inkscape:window-width="1300"
     inkscape:window-height="699"
     inkscape:window-x="0"
     inkscape:window-y="0"
     inkscape:window-maximized="1"
     inkscape:current-layer="svg1" /><g
     inkscape:groupmode="layer"
     id="layer1"
     inkscape:label="Estrutura_IFPR_Plana"
     style="display:inline"><rect
       style="fill:#165044;stroke:url(#linearGradient1);stroke-width:1.07182"
       id="rect1"
       width="67.583618"
       height="149.31265"
       x="335.8967"
       y="209.57361"
       inkscape:label="Bloco_Tecnologico" /><rect
       style="fill:#165044;stroke:#8ad1c9;stroke-width:1.07182;stroke-opacity:1"
       id="rect2"
       width="213.38269"
       height="102.24588"
       x="878.24762"
       y="21.90802"
       inkscape:label="Bloco_Didatico" /><rect
       style="fill:#374845;stroke:#88cbbe;stroke-width:1.07182;stroke-opacity:1"
       id="rect3"
       width="142.25513"
       height="93.354927"
       x="818.23376"
       y="579.81488"
       inkscape:label="Quadra_Poliesportiva" /><path
       style="fill:#165044;stroke:#88cbbe;stroke-width:1.07182;stroke-dasharray:none;stroke-opacity:1"
       id="rect4"
       width="166.70522"
       height="123.36188"
       x="538.16895"
       y="287.52502"
       inkscape:label="Bloco_Administrativo"
       inkscape:path-effect="#path-effect45"
       sodipodi:type="rect"
       d="m 542.91514,287.52502 h 157.91802 a 4.0410043,4.0410043 45 0 1 4.041,4.04101 v 113.53778 a 5.7830933,5.7830933 135 0 1 -5.78309,5.78309 h -154.5481 a 6.3740247,6.3740247 45 0 1 -6.37402,-6.37402 V 292.27122 a 4.7461954,4.7461954 135 0 1 4.74619,-4.7462 z" /><path
       style="fill:#165044;stroke:#88cbbe;stroke-width:1.07182;stroke-dasharray:none;stroke-opacity:1"
       d="m 460.332,135.90072 c 31.24842,57.29493 74.95551,97.6588 127.70397,133.85865 3.13876,2.15404 7.30225,1.23519 9.27694,-2.0194 l 26.43143,-43.56293 -0.55568,-1.66706 c -51.28282,-28.56997 -81.8433,-68.93546 -112.58571,-116.54418 -1.04329,-1.61568 -3.27066,-2.21284 -4.9797,-1.33075 l -42.35359,21.85991 c -3.44104,1.77602 -4.79175,6.00623 -2.93766,9.40576 z"
       id="path4"
       inkscape:label="Sala_De_Professores"
       sodipodi:nodetypes="cccccc"
       inkscape:path-effect="#path-effect26"
       inkscape:original-d="m 457.03911,129.71073 c 32.52495,62.69853 79.49215,105.43806 136.6983,143.92219 l 30.00693,-49.45588 -0.55568,-1.66706 C 570.8578,193.35614 540.10492,151.91973 508.71774,103.03789 Z" /><path
       style="fill:#165044;stroke:#88cbbe;stroke-width:1.07182;stroke-dasharray:none;stroke-opacity:1"
       d="m 501.62359,39.523489 12.48577,37.457273 c 0.70504,2.115123 -0.28762,4.73811 -2.27618,5.745763 -18.47143,9.35995 -39.56271,11.111033 -59.60415,15.943233 -2.26025,0.54497 -5.09319,-0.557848 -6.22703,-2.587681 -5.01078,-8.970484 -8.24734,-18.575394 -11.4677,-28.305545 -0.7664,-2.315641 0.33859,-5.154695 2.4982,-6.289869 19.07939,-10.028896 39.44894,-16.963375 59.66607,-24.336626 2.0357,-0.742425 4.23957,0.317093 4.92502,2.373452 z"
       id="path5"
       inkscape:label="Auditorio"
       sodipodi:nodetypes="ccccc"
       inkscape:path-effect="#path-effect31"
       inkscape:original-d="m 500.38247,35.800121 15.00348,45.01041 C 494.862,92.58062 470.67097,93.697705 448.14817,99.703795 441.07904,88.46023 437.30493,76.065015 433.14469,63.584327 454.47927,51.766084 477.58389,44.199598 500.38247,35.800121 Z" /><path
       style="fill:#165044;stroke:#88cbbe;stroke-width:1.07182;stroke-dasharray:none;stroke-opacity:1"
       d="m 538.43088,25.165695 0.14226,64.925616 a 1.8295119,1.8295119 44.821338 0 0 1.83691,1.825488 l 28.87992,-0.116829 a 6.125109,6.125109 27.397082 0 1 5.04376,2.614113 l 8.41875,12.034817 a 1.2523383,1.2523383 162.51297 0 0 2.27852,-0.71785 l 0,-79.38914 c 0,-1.221176 -0.98995,-2.205885 -2.21111,-2.201086 -14.39139,0.05655 -28.78148,-0.05717 -43.17211,-0.184043 -0.67355,-0.0059 -1.21837,0.535296 -1.2169,1.208914 z"
       id="path6"
       inkscape:label="Olimpo"
       sodipodi:nodetypes="cccccc"
       inkscape:path-effect="#path-effect35"
       inkscape:original-d="M 538.42821,23.946001 538.57716,91.924214 572.496,91.787 585.031,109.7061 V 24.130775 c -15.53512,0.08031 -31.0686,-0.04715 -46.60279,-0.184774 z"
       transform="translate(3.481551,-2.0737959)" /><path
       style="fill:#afe9dd;stroke:#88cbbe;stroke-width:1.07182;stroke-dasharray:none;stroke-opacity:1"
       d="m 514.74699,100.3515 17.5104,-12.890715 c 1.36233,-1.002914 2.3307,-0.449258 2.3024,1.241538 -0.0217,1.295492 -0.0142,2.601473 -0.0833,3.817636 -0.16293,2.868805 0.8166,4.961388 3.75624,4.961388 h 28.8018 a 4.3878728,4.3878728 27.176479 0 1 3.56568,1.830663 l 13.98704,19.50303 a 1.7466715,1.7466715 97.957063 0 1 -0.33352,2.38607 l -17.79079,14.12044 a 7.7657441,7.7657441 117.37047 0 0 -2.92599,5.65194 l -0.74981,13.49679 a 6.9645158,6.9645158 116.68713 0 1 -2.49522,4.96398 l -2.63064,2.1922 c -0.94462,0.78718 -2.34951,0.66035 -3.13033,-0.28953 -13.03839,-15.86145 -30.22413,-39.84463 -40.57131,-57.12362 -0.75379,-1.25877 -0.39424,-2.99195 0.78736,-3.86181 z"
       id="path7"
       sodipodi:nodetypes="ccccccccc"
       inkscape:path-effect="#path-effect29"
       inkscape:original-d="m 512.60752,101.92652 22.11659,-16.281671 c -0.48312,4.273921 0.45087,9.680072 -1.81408,11.836498 h 36.37727 l 16.26945,22.685553 -21.8263,17.32341 -1.11135,20.00463 -6.66822,5.55684 c -13.75749,-16.48957 -32.83973,-43.11902 -43.34336,-61.12526 z"
       transform="translate(2.518449,-1.5553469)" /><path
       style="fill:#afe9dd;stroke:#88cbbe;stroke-width:1.07182;stroke-dasharray:none;stroke-opacity:1"
       d="m 598.2927,68.643004 0.89575,36.725906 c 0.0584,2.39536 1.96643,3.75763 4.32033,3.31585 40.33991,-7.57114 71.1156,45.37418 83.95591,39.09895 1.54522,-0.75517 3.45129,-2.91554 4.645,-4.15854 4.43399,-4.61704 13.88039,-15.80236 16.70749,-22.50192 0.95313,-2.2587 -0.81096,-5.97387 -2.51642,-7.84454 -25.33423,-27.788513 -61.08259,-45.13045 -103.62648,-48.7989 -2.47843,-0.213709 -4.44224,1.67626 -4.38158,4.163194 z"
       id="path8"
       sodipodi:nodetypes="ccccssc"
       inkscape:path-effect="#path-effect42"
       inkscape:original-d="m 598.2927,68.643004 0.89575,36.725906 c 0.0584,2.39536 1.96643,3.75763 4.32033,3.31585 43.02413,-8.07492 75.16889,52.6881 86.2784,37.0244 0.61828,0.48799 22.64531,-23.91776 19.54734,-28.99462 -25.47663,-29.793743 -62.38919,-48.417352 -106.66024,-52.23473 -2.47843,-0.213709 -4.44224,1.67626 -4.38158,4.163194 z" /><path
       style="display:inline;fill:#afe9dd;stroke:#88cbbe;stroke-width:1.07182;stroke-dasharray:none;stroke-opacity:1"
       d="m 851.66938,13.389 h 17.40951 v 8.519019 L 866.773,21.908 v 48.528 h 10.3633 v 7.874 h -33.61889 v -7.874 h 14.4478 V 21.908 h -6.39037 z"
       id="path9"
       sodipodi:nodetypes="ccccccccccccc" /><path
       style="fill:#afe9dd;stroke:#88cbbe;stroke-width:1.07182;stroke-dasharray:none;stroke-opacity:1"
       d="m 785.44842,72.60625 v 6.381032 A 0.71171795,0.71171795 135 0 1 784.7367,79.699 l -75.60895,0 A 64.346081,64.346081 7.6989662 0 1 692.04249,77.389297 L 616.85159,56.68119 a 1.128049,1.128049 148.4373 0 0 -1.40502,0.863111 l -0.983,4.841684 a 1.9544589,1.9544589 143.86454 0 1 -2.12824,1.553957 l -7.09476,-0.777304 c -0.67545,-0.074 -1.18489,-0.683966 -1.09845,-1.357859 0.63487,-4.94947 2.79823,-9.785517 4.53516,-14.529716 0.35255,-0.962966 1.41857,-1.518964 2.40455,-1.233388 l 83.82181,24.277972 A 40.537967,40.537967 8.0765092 0 0 706.18145,71.92 h 78.58072 a 0.68625031,0.68625031 45 0 1 0.68625,0.68625 z"
       id="path10"
       sodipodi:nodetypes="ccccccccc"
       inkscape:path-effect="#path-effect44"
       inkscape:original-d="m 785.44842,71.92 v 7.779 H 700.429 l -84.74207,-23.338565 -1.5783,7.77379 -10.09107,-1.105581 c 0.44622,-5.989506 3.34763,-11.811588 5.279,-17.50405 L 700.429,71.92 Z" /><path
       style="fill:#afe9dd;stroke:#88cbbe;stroke-width:1.07182;stroke-dasharray:none;stroke-opacity:1"
       d="m 474.821,163.8853 -55.84625,28.61775 4.44547,8.89093 56.95763,-29.21065 z"
       id="path11"
       sodipodi:nodetypes="ccccc" /><path
       style="fill:#afe9dd;stroke:#88cbbe;stroke-width:1.07182;stroke-dasharray:none;stroke-opacity:1"
       d="m 620.54916,232.23445 4.5844,-7.22389 48.06667,40.14817 h 8.19634 v 21.116 l -8.33525,-0.13891 -0.27784,-11.94722 h -2.36166 z"
       id="path12" /><path
       style="fill:#afe9dd;stroke:#88cbbe;stroke-width:1.07182;stroke-dasharray:none;stroke-opacity:1"
       d="m 707.09697,321.97743 h 75.57304 v 254.50334 h 32.22968 v 6.66821 H 774.89042 V 329.75702 h -67.79345 z"
       id="path21" /><g
       id="path22"
       style="opacity:1"><path
         style="baseline-shift:baseline;display:inline;overflow:visible;vector-effect:none;fill:#006633;enable-background:accumulate;stop-color:#000000;stop-opacity:1"
         d="m 854.56166,159.27882 h -42.43623 v 372.49575 h 144.59751 v 45.57966 h 7.85856 V 677.94379 H 824.69913 v 9.43028 h -7.85856 v 26.7191 H 1000.7308 V 424.89815 h 199.6074 V 0.53591001 h -33.006 V 57.117544 l -45.4742,76.697936 -243.72124,1.72116 a 23.74277,23.74277 134.79769 0 0 -23.5751,23.74218 z"
         id="path46"
         inkscape:path-effect="#path-effect47"
         inkscape:original-d="m 854.56166,135.70313 v 23.57569 h -42.43623 v 372.49575 h 144.59751 v 45.57966 h 7.85856 V 677.94379 H 824.69913 v 9.43028 h -7.85856 v 26.7191 H 1000.7308 V 424.89815 h 199.6074 V 0.53591001 h -33.006 V 57.117544 l -45.4742,76.697936 z" /><path
         style="baseline-shift:baseline;display:inline;overflow:visible;vector-effect:none;fill:#88cbbe;enable-background:accumulate;stop-color:#000000;stop-opacity:1"
         d="m 1166.7969,0 v 56.970703 l -45.2461,76.310547 -267.52541,1.89062 v 23.57032 H 811.58984 V 532.31055 H 956.1875 v 45.58007 h 7.85742 V 677.4082 H 824.16406 v 9.42969 h -7.85937 v 27.79102 H 1001.2676 V 425.43359 H 1200.875 V 0 Z m 1.0703,1.0722656 h 31.9355 V 424.36133 H 1000.1953 V 713.55664 H 817.37695 v -25.64648 h 7.85742 v -9.42969 H 965.11719 V 576.81836 h -7.85742 V 531.23828 H 812.66211 V 159.81445 h 42.43555 v -23.58008 l 267.06644,-1.88476 45.7031,-77.085938 z"
         id="path47" /></g><path
       style="fill:#006633;stroke:#88cbbe;stroke-width:1.07182;stroke-dasharray:none;stroke-opacity:1;fill-opacity:1"
       d="m 180.4025,124.904 h 141.24346 l -1.4664,293.70731 h 446.36622 l 1.57172,172.88832 h 17.28882 v 69.15533 l -25.14738,39.2928 v 15.71712 H 181.8689 Z"
       id="path23"
       sodipodi:nodetypes="ccccccccccc" /><path
       style="fill:#008066;stroke:#88cbbe;stroke-width:1.07182;stroke-dasharray:none;stroke-opacity:1"
       d="M 189.727,14.681319 H 353.18552 V 99.553765 L 189.727,99.554 Z"
       id="path24"
       inkscape:label="Restaurante_Popular"
       sodipodi:nodetypes="ccccc" /><path
       style="fill:#165044;stroke:#88cbbe;stroke-width:1;stroke-dasharray:none;stroke-opacity:1"
       id="rect24"
       width="27.996244"
       height="22.811754"
       x="811.10577"
       y="13.479673"
       inkscape:label="Portaria"
       inkscape:path-effect="#path-effect36"
       sodipodi:type="rect"
       d="m 814.6386,13.479673 20.34925,0 a 4.1141693,4.1141693 45 0 1 4.11417,4.11417 v 14.431565 a 4.2660196,4.2660196 135 0 1 -4.26602,4.26602 h -19.98266 a 3.7475705,3.7475705 45 0 1 -3.74757,-3.747571 l 0,-15.531362 a 3.532822,3.532822 135 0 1 3.53283,-3.532822 z" /></g></svg>
